<svg xmlns="http://www.w3.org/2000/svg" width="168" height="588" viewBox="0 0 168 588" fill="none"><path d="M11.0891 66.4722L11.0614 66.4653L91.4777 185.703C103.659 203.764 108.204 225.377 104.282 246.556C100.353 267.735 88.4271 285.948 70.6905 297.848L30.0085 325.133C22.1986 330.541 15.2327 335.584 9 340.282V339.399C16.0628 334.08 23.1048 329.044 29.6004 324.539L70.2824 297.248C87.8598 285.458 99.675 267.411 103.57 246.418C107.464 225.426 102.954 203.998 90.8759 186.096L9.47731 65.3891L9.50498 65.396L9 64.6441V63.3678L11.0891 66.4722ZM9 114.736V116.04L68.304 203.977C77.1377 217.078 80.4373 232.759 77.5942 248.115C74.7442 263.472 66.0973 276.683 53.2376 285.306L23.4161 305.306C18.1104 308.99 13.3165 312.439 9 315.668V316.564C13.4203 313.246 18.3387 309.693 23.8173 305.892L53.6319 285.893C66.6507 277.159 75.4083 263.789 78.2929 248.24C81.1775 232.69 77.8363 216.83 68.8989 203.57L10.0999 116.391L10.1206 116.398L9 114.736ZM9 166.11V167.407L45.7321 221.866C51.3284 230.165 53.4174 240.092 51.612 249.826C49.8065 259.553 44.3278 267.915 36.1859 273.378L17.2319 286.093C14.2297 288.176 11.5041 290.135 9 291.991V292.881C11.601 290.943 14.4648 288.88 17.64 286.679L36.5871 273.965C44.8881 268.398 50.4775 259.864 52.3176 249.95C54.1576 240.037 52.027 229.917 46.327 221.466L9.1176 166.297H9.13143L9 166.11ZM114.05 167.814L12.0299 16.5394L12.0714 16.5463L9 12V13.2763L10.4804 15.4701L10.4388 15.4632L113.455 168.214C128.77 190.925 134.484 218.092 129.552 244.721C124.62 271.343 109.622 294.24 87.3341 309.19L35.7847 343.766C27.3453 349.616 18.1796 356.177 9 363.103V364C18.3179 356.956 27.6358 350.292 36.1859 344.352L87.7353 309.776C110.183 294.716 125.284 271.661 130.257 244.845C135.231 218.037 129.476 190.684 114.05 167.814Z" fill="#D5EA79"></path><g clip-path="url(#clip0_1087_34)"><path opacity="0.051" d="M98.46 32.57L9 0V575.93L161.78 156.18C179.63 107.14 151.28 51.79 98.46 32.57Z" fill="#D5EA79"></path></g><defs><clipPath id="clip0_1087_34"><rect width="167.09" height="587.58" fill="white"></rect></clipPath></defs></svg>