<svg xmlns="http://www.w3.org/2000/svg" width="219" height="550" viewBox="0 0 219 550" fill="none"><path opacity="0.085" d="M218.669 0.230469L42.5694 119.01C-0.680637 148.18 -12.0906 206.89 17.0794 250.14L218.669 549.01V0.230469Z" fill="#FFC261"></path><g clip-path="url(#clip0_1089_39)"><path d="M196.8 138.82C206.6 132.64 215.32 126.89 223.09 121.53V122.48C215.41 127.75 206.83 133.4 197.21 139.47L159.95 162.68C140.54 174.75 126.85 194.18 122.03 216.52C117.02 239.12 121.13 262.78 133.45 282.37L223.1 426.26V427.73L132.8 282.79C120.37 263.03 116.23 239.16 121.28 216.37C126.15 193.82 139.96 174.21 159.55 162.04L196.8 138.82ZM178.53 254.17C174.82 270.9 177.86 288.42 186.99 302.93L223.1 360.89V359.43L187.64 302.52C178.62 288.19 175.62 270.87 179.28 254.34C182.81 237.99 192.82 223.77 207.03 214.94L223.09 204.93V204.02L206.62 214.28C192.24 223.22 182.1 237.62 178.53 254.17ZM223.09 493.1L79.2599 262.23C46.8699 210.25 61.9599 142.15 112.88 110.43L160.09 81.0198C179.82 68.5698 202.89 53.1698 223.1 37.4798V36.5098C202.79 52.3198 179.53 67.8498 159.68 80.3698L112.46 109.78C61.1799 141.73 45.9899 210.3 78.5999 262.64L223.1 494.56V493.1H223.09Z" fill="#FFC261"></path></g><defs><clipPath id="clip0_1089_39"><rect width="167.09" height="477.07" fill="white" transform="translate(56 27)"></rect></clipPath></defs></svg>