<svg xmlns="http://www.w3.org/2000/svg" width="168" height="588" viewBox="0 0 168 588" fill="none"><mask id="mask0_1091_128" style="mask-type:luminance" maskUnits="userSpaceOnUse" x="0" y="0" width="168" height="588"><path d="M167.09 0H0V587.58H167.09V0Z" fill="white"></path></mask><g mask="url(#mask0_1091_128)"><path opacity="0.051" d="M98.46 32.57L9 0V575.93L161.78 156.18C179.63 107.14 151.28 51.79 98.46 32.57Z" fill="#06BE9E"></path></g><g clip-path="url(#clip0_1091_128)"><path d="M10.8476 100.653L10.8231 100.647L81.9417 206.461C92.7151 222.489 96.7344 241.669 93.2657 260.464C89.7908 279.259 79.2438 295.422 63.5579 305.982L27.5796 330.195C20.6726 334.995 14.5121 339.47 9 343.639V342.856C15.2462 338.136 21.4741 333.666 27.2186 329.669L63.197 305.45C78.7421 294.987 89.1912 278.971 92.6355 260.342C96.0798 241.712 92.091 222.697 81.4095 206.81L9.42212 99.6915L9.44659 99.6976L9 99.0303V97.8977L10.8476 100.653ZM9 143.483V144.64L61.4473 222.679C69.2597 234.305 72.1778 248.22 69.6634 261.848C67.1429 275.476 59.4958 287.2 48.1229 294.852L21.7494 312.6C17.0571 315.869 12.8175 318.93 9 321.796V322.591C12.9092 319.647 17.2589 316.494 22.1042 313.121L48.4716 295.373C59.9852 287.622 67.7302 275.757 70.2813 261.958C72.8324 248.159 69.8776 234.084 61.9734 222.317L9.97272 144.952L9.99107 144.958L9 143.483ZM9 189.074V190.225L41.4852 238.553C46.4344 245.918 48.282 254.728 46.6852 263.366C45.0885 271.998 40.2433 279.418 33.0427 284.267L16.2801 295.55C13.625 297.399 11.2146 299.138 9 300.785V301.574C11.3003 299.854 13.833 298.023 16.641 296.071L33.3975 284.787C40.7388 279.847 45.6819 272.274 47.3092 263.476C48.9366 254.679 47.0523 245.698 42.0113 238.198L9.104 189.24H9.11624L9 189.074ZM101.904 190.587L11.6796 56.3408L11.7163 56.347L9 52.3125V53.4451L10.3092 55.3919L10.2725 55.3858L101.378 190.942C114.922 211.096 119.976 235.204 115.614 258.836C111.252 282.461 97.9885 302.78 78.2772 316.047L32.6879 346.731C25.2242 351.923 17.1182 357.745 9 363.891V364.687C17.2406 358.436 25.4812 352.522 33.0427 347.251L78.632 316.567C98.4841 303.203 111.839 282.743 116.238 258.946C120.636 235.155 115.546 210.881 101.904 190.587Z" fill="#06BE9E"></path></g><defs><clipPath id="clip0_1091_128"><rect width="135" height="371" fill="white" transform="translate(9 23)"></rect></clipPath></defs></svg>