<svg width="94" height="119" viewBox="0 0 94 119" fill="none" xmlns="http://www.w3.org/2000/svg">
<path fill-rule="evenodd" clip-rule="evenodd" d="M5.61332 104.644C22.613 125.396 57.1184 122.802 62.3596 100.409C63.2484 96.6445 63.3402 96.45 65.3441 95.9259C76.9704 92.7989 85.4701 75.3731 82.894 59.9076C82.4497 57.1267 82.5415 56.9321 84.9235 54.7054C106.493 34.6592 84.2959 -3.29084 53.3074 0.587841C44.083 1.75911 46.8583 11.6691 57.4752 11.0342C82.8785 9.47017 96.7561 30.3338 80.185 45.1548L79.0147 46.1856L75.685 40.977C67.0462 27.4667 51.0537 24.6429 49.7798 36.4729C48.28 50.2706 63.112 63.5871 75.685 59.6296C77.8619 58.9346 77.8619 58.9346 77.3076 63.636C76.2082 73.8812 63.814 90.6647 62.2146 84.1014C56.657 61.3182 30.19 50.2858 31.5599 71.3246C32.2101 81.193 40.4055 90.8622 51.6375 94.9582C56.2726 96.6555 56.2722 97.0089 52.1489 101.515C40.9091 113.815 15.2058 110.607 4.16899 95.5178C-0.674185 88.8539 -0.0126523 97.7973 5.61332 104.644ZM37.0788 73.8528C36.7713 66.8242 52.7708 72.2582 56.0973 80.2947C58.5821 86.2749 58.0729 86.9229 51.9123 85.4021C44.237 83.4864 37.2572 78.0594 37.0788 73.8528ZM55.5591 42.8775C55.9002 37.805 65.9455 39.1259 71.6844 44.9887C75.1582 48.5593 75.127 48.8599 71.4555 49.4309C64.1837 50.461 55.2395 46.8071 55.5591 42.8775Z" fill="#A1C27B" fill-opacity="0.18"/>
</svg>
