<svg width="253" height="46" viewBox="0 0 253 46" fill="none" xmlns="http://www.w3.org/2000/svg">
<g clip-path="url(#clip0_172_69)">
<path d="M16.7222 22.9361L14.5834 26.1065C14.5834 26.1065 4.33719 26.9981 0.78582 16.962C-2.76554 6.9259 7.56031 -0.633385 13.32 0.129478L13.2205 3.71592C12.0766 3.67629 10.9425 3.98342 9.97759 4.60758C9.01268 5.22184 8.26657 6.1234 7.82889 7.1835C6.27701 10.9285 8.17702 15.0895 12.5044 15.565C16.8217 16.0505 20.8505 16.0604 22.4422 17.4177L19.3485 20.1224C17.8165 19.4685 16.1452 19.1713 14.474 19.2704C11.1116 19.2704 5.8592 18.7949 3.85969 11.6021C3.85969 11.6021 1.54186 22.3912 16.7222 22.9361Z" fill="#0CA750"/>
<path d="M39.9603 32.4469V28.7614C39.9603 28.7614 29.4155 28.4741 28.58 40.3331C28.58 40.5808 28.4805 40.8086 28.3114 40.987C28.1323 41.1554 27.8935 41.2545 27.6548 41.2545H26.7694L26.7595 45.3957C27.9135 45.4156 29.0376 45.0589 29.9726 44.3852C30.8978 43.7214 31.5941 42.7604 31.9423 41.6706C33.2455 37.7473 31.7831 33.5169 39.9503 32.4469H39.9603Z" fill="#0CA750"/>
<path d="M16.7222 22.9361L14.5834 26.1065C14.5834 26.1065 4.33719 26.9981 0.78582 16.962C-2.76554 6.9259 7.56031 -0.633385 13.32 0.129478L13.2205 3.71592C12.0766 3.67629 10.9425 3.98342 9.97759 4.60758C9.01268 5.22184 8.26657 6.1234 7.82889 7.1835C6.27701 10.9285 8.17702 15.0895 12.5044 15.565C16.8217 16.0505 20.8505 16.0604 22.4422 17.4177L19.3485 20.1224C17.8165 19.4685 16.1452 19.1713 14.474 19.2704C11.1116 19.2704 5.8592 18.7949 3.85969 11.6021C3.85969 11.6021 1.54186 22.3912 16.7222 22.9361Z" stroke="#0CA750" stroke-width="0.144042"/>
<path d="M21.507 28.2562C21.507 28.2562 24.7102 23.3421 29.5747 21.3012C34.4392 19.2702 36.0408 19.3297 37.8314 19.3297C39.622 19.3297 46.4064 19.518 48.386 11.5525C48.6546 12.9692 48.5849 14.4256 48.187 15.8027C47.7792 17.1798 47.0431 18.4479 46.0482 19.4882C42.6461 22.9756 40.5372 22.4505 36.6973 22.6882C32.8575 22.926 26.8092 25.4623 23.9741 30.5745L26.5605 32.9225C26.5605 32.9225 30.6889 26.6017 37.4633 26.1261C44.2278 25.6506 45.9588 25.7397 50.2363 19.726C54.5039 13.7023 52.1462 1.12005 39.234 0.0698776V3.47799C39.234 3.47799 43.8398 4.05261 44.7551 8.01555C45.6703 11.9884 43.5513 15.4757 39.2838 15.4262C35.0261 15.4163 30.8281 16.4863 27.1076 18.5371C23.3772 20.578 20.2337 23.5403 17.9756 27.1367L21.507 28.2562Z" fill="#0CA750" stroke="#0CA750" stroke-width="0.144042"/>
<path d="M39.9603 32.4469V28.7614C39.9603 28.7614 29.4155 28.4741 28.58 40.3331C28.58 40.5808 28.4805 40.8086 28.3114 40.987C28.1323 41.1554 27.8935 41.2545 27.6548 41.2545H26.7694L26.7595 45.3957C27.9135 45.4156 29.0376 45.0589 29.9726 44.3852C30.8978 43.7214 31.5941 42.7604 31.9423 41.6706C33.2455 37.7473 31.7831 33.5169 39.9503 32.4469" stroke="#0CA750" stroke-width="0.144042"/>
<path d="M13.7478 32.4469V28.7614C13.7478 28.7614 24.2925 28.4741 25.128 40.3331C25.128 40.5808 25.2176 40.8086 25.3966 40.987C25.5658 41.1554 25.8045 41.2545 26.0532 41.2545H26.8491V45.3957C25.715 45.4057 24.6008 45.049 23.6856 44.3753C22.7705 43.7115 22.094 42.7604 21.7657 41.6706C20.4526 37.7473 21.9249 33.5169 13.7478 32.4469Z" fill="#0CA750"/>
<path d="M13.7478 32.4469V28.7614C13.7478 28.7614 24.2925 28.4741 25.128 40.3331C25.128 40.5808 25.2176 40.8086 25.3966 40.987C25.5658 41.1554 25.8045 41.2545 26.0532 41.2545H26.8491V45.3957C25.715 45.4057 24.6008 45.049 23.6856 44.3753C22.7705 43.7115 22.094 42.7604 21.7657 41.6706C20.4526 37.7473 21.9249 33.5169 13.7478 32.4469Z" stroke="#0CA750" stroke-width="0.144042"/>
<path d="M67.4281 39.5672C65.6292 39.5672 64.0172 39.2763 62.5921 38.6946C61.167 38.113 60.0222 37.2521 59.1578 36.112C58.3167 34.9718 57.8728 33.5991 57.8262 31.9936H64.2041C64.2975 32.901 64.613 33.5991 65.1503 34.0877C65.6876 34.553 66.3885 34.7857 67.2529 34.7857C68.1407 34.7857 68.8415 34.5879 69.3558 34.1924C69.8694 33.7736 70.1265 33.2035 70.1265 32.4822C70.1265 31.8773 69.9163 31.377 69.4957 30.9814C69.0987 30.5859 68.5962 30.2602 67.9888 30.0043C67.4047 29.7483 66.5637 29.4575 65.4657 29.1317C63.877 28.6431 62.5804 28.1545 61.5758 27.6659C60.5713 27.1772 59.7068 26.4559 58.9826 25.502C58.2583 24.548 57.8962 23.3032 57.8962 21.7676C57.8962 19.4874 58.7256 17.7074 60.3844 16.4277C62.0431 15.1248 64.2041 14.4733 66.8674 14.4733C69.5778 14.4733 71.7617 15.1248 73.4203 16.4277C75.0797 17.7074 75.9669 19.499 76.0841 21.8025H69.6005C69.5543 21.0114 69.262 20.3948 68.7247 19.9528C68.1874 19.4874 67.4982 19.2547 66.6572 19.2547C65.9329 19.2547 65.3489 19.4525 64.905 19.848C64.4611 20.2203 64.2391 20.7671 64.2391 21.4884C64.2391 22.2795 64.613 22.8961 65.3605 23.3382C66.1082 23.7803 67.2762 24.2572 68.8649 24.7691C70.4533 25.3042 71.7383 25.8161 72.7199 26.3048C73.7244 26.7933 74.5888 27.503 75.3127 28.4337C76.0372 29.3644 76.3991 30.5626 76.3991 32.0285C76.3991 33.4245 76.0372 34.6926 75.3127 35.8327C74.6123 36.9728 73.5844 37.8803 72.2291 38.555C70.8738 39.2298 69.2738 39.5672 67.4281 39.5672ZM97.7842 14.8223V19.6037H91.2662V39.3228H85.2734V19.6037H78.7554V14.8223H97.7842ZM112.426 39.5672C110.114 39.5672 107.988 39.032 106.048 37.9617C104.133 36.8914 102.602 35.4023 101.457 33.4944C100.336 31.5632 99.7751 29.3993 99.7751 27.0028C99.7751 24.6062 100.336 22.454 101.457 20.546C102.602 18.6381 104.133 17.149 106.048 16.0788C107.988 15.0084 110.114 14.4733 112.426 14.4733C114.739 14.4733 116.854 15.0084 118.769 16.0788C120.708 17.149 122.227 18.6381 123.325 20.546C124.446 22.454 125.007 24.6062 125.007 27.0028C125.007 29.3993 124.446 31.5632 123.325 33.4944C122.203 35.4023 120.684 36.8914 118.769 37.9617C116.854 39.032 114.739 39.5672 112.426 39.5672ZM112.426 34.1226C114.388 34.1226 115.954 33.4711 117.122 32.1681C118.314 30.8651 118.909 29.1434 118.909 27.0028C118.909 24.8389 118.314 23.1171 117.122 21.8374C115.954 20.5344 114.388 19.883 112.426 19.883C110.44 19.883 108.851 20.5228 107.66 21.8025C106.492 23.0822 105.908 24.8156 105.908 27.0028C105.908 29.1666 106.492 30.9 107.66 32.203C108.851 33.4827 110.44 34.1226 112.426 34.1226Z" fill="#222448"/>
<path d="M170.676 39.3232L162.406 28.5039V39.3232H156.413V14.8227H162.406V25.5723L170.606 14.8227H177.65L168.118 26.8287L178 39.3232H170.676ZM196.162 34.9955H186.981L185.509 39.3232H179.236L188.137 14.8227H195.076L203.977 39.3232H197.634L196.162 34.9955ZM194.62 30.3886L191.571 21.419L188.558 30.3886H194.62ZM219.232 39.3232L214.115 30.0745H212.678V39.3232H206.686V14.8227H216.744C218.683 14.8227 220.33 15.1601 221.684 15.8348C223.063 16.5096 224.091 17.4403 224.769 18.6269C225.446 19.7903 225.785 21.0932 225.785 22.5358C225.785 24.1645 225.317 25.6187 224.383 26.8985C223.472 28.1782 222.117 29.0856 220.318 29.6207L225.995 39.3232H219.232ZM212.678 25.8514H216.393C217.491 25.8514 218.308 25.5839 218.846 25.0487C219.407 24.5136 219.687 23.7574 219.687 22.7801C219.687 21.8494 219.407 21.1165 218.846 20.5814C218.308 20.0462 217.491 19.7787 216.393 19.7787H212.678V25.8514ZM247.244 14.8227V19.6041H240.726V39.3232H234.733V19.6041H228.215V14.8227H247.244Z" fill="#222448"/>
<path d="M144.703 39.3232L139.691 31.8195L135.275 39.3232H128.477L136.362 26.8636L128.302 14.8227H135.275L140.217 22.2217L144.562 14.8227H151.361L143.546 27.1777L151.676 39.3232H144.703Z" fill="#0CA750"/>
</g>
<defs>
<clipPath id="clip0_172_69">
<rect width="253" height="46" fill="white"/>
</clipPath>
</defs>
</svg>
