<svg width="40" height="40" viewBox="0 0 40 40" fill="none" xmlns="http://www.w3.org/2000/svg">
<g opacity="0.64">
<path d="M31.657 8.23759C30.9863 7.96385 30.2529 7.9256 29.561 8.1283L10.5741 11.131C9.89154 11.325 9.28042 11.7406 8.82305 12.3216C8.36568 12.9026 8.08403 13.6212 8.01605 14.3805C7.94808 15.1399 8.09705 15.9035 8.44288 16.5685C8.7887 17.2336 9.31475 17.7681 9.9502 18.1L16.1074 21.032L31.657 8.23759Z" fill="#707070"/>
<path d="M27.3156 29.2153L31.8897 10.7606C32.0753 9.97172 32.038 9.14076 31.7825 8.375L18.1562 23.2312L20.8687 29.887C21.1755 30.5739 21.6698 31.1427 22.2848 31.5168C22.8998 31.8908 23.6062 32.0521 24.3086 31.9789C25.011 31.9057 25.6758 31.6015 26.2135 31.1074C26.7511 30.6133 27.1358 29.953 27.3156 29.2153Z" fill="#707070"/>
</g>
</svg>
