<svg width="1542" height="2835" viewBox="0 0 1542 2835" fill="none" xmlns="http://www.w3.org/2000/svg">
<g filter="url(#filter0_f_62_138)">
<path fill-rule="evenodd" clip-rule="evenodd" d="M1476.4 1025.43C1562.22 1017.27 1669.06 969.187 1728.63 1031.54C1790.84 1096.66 1722.48 1205.79 1734.05 1295.13C1742.46 1360.17 1807.95 1417.71 1786.62 1479.74C1765.31 1541.72 1675.65 1544.14 1631.7 1592.75C1568.09 1663.08 1565.06 1789.18 1476.4 1822.78C1386.46 1856.85 1283.75 1807.67 1203.2 1755.1C1119.81 1700.68 1052.78 1621.34 1022.4 1526.48C992.09 1431.85 991.059 1324.15 1036.95 1236.02C1079.84 1153.68 1173.08 1116.54 1256.77 1076.44C1326.25 1043.14 1399.7 1032.73 1476.4 1025.43Z" fill="#5BDE98" fill-opacity="0.5"/>
</g>
<defs>
<filter id="filter0_f_62_138" x="0.873047" y="0.0466309" width="2790" height="2834" filterUnits="userSpaceOnUse" color-interpolation-filters="sRGB">
<feFlood flood-opacity="0" result="BackgroundImageFix"/>
<feBlend mode="normal" in="SourceGraphic" in2="BackgroundImageFix" result="shape"/>
<feGaussianBlur stdDeviation="500" result="effect1_foregroundBlur_62_138"/>
</filter>
</defs>
</svg>
